%TF.GenerationSoftware,KiCad,Pcbnew,(5.1.8)-1*%
%TF.CreationDate,2020-11-20T15:55:55+01:00*%
%TF.ProjectId,PAD_2020.11_ParcheRadio_PCB_v01,5041445f-3230-4323-902e-31315f506172,rev?*%
%TF.SameCoordinates,Original*%
%TF.FileFunction,Legend,Bot*%
%TF.FilePolarity,Positive*%
%FSLAX46Y46*%
G04 Gerber Fmt 4.6, Leading zero omitted, Abs format (unit mm)*
G04 Created by KiCad (PCBNEW (5.1.8)-1) date 2020-11-20 15:55:55*
%MOMM*%
%LPD*%
G01*
G04 APERTURE LIST*
%ADD10C,0.200000*%
%ADD11C,0.500000*%
%ADD12C,1.200000*%
G04 APERTURE END LIST*
D10*
X1971428Y-41479761D02*
X1916666Y-41425000D01*
X1807142Y-41370238D01*
X1533333Y-41370238D01*
X1423809Y-41425000D01*
X1369047Y-41479761D01*
X1314285Y-41589285D01*
X1314285Y-41698809D01*
X1369047Y-41863095D01*
X2026190Y-42520238D01*
X1314285Y-42520238D01*
X602380Y-41370238D02*
X492857Y-41370238D01*
X383333Y-41425000D01*
X328571Y-41479761D01*
X273809Y-41589285D01*
X219047Y-41808333D01*
X219047Y-42082142D01*
X273809Y-42301190D01*
X328571Y-42410714D01*
X383333Y-42465476D01*
X492857Y-42520238D01*
X602380Y-42520238D01*
X711904Y-42465476D01*
X766666Y-42410714D01*
X821428Y-42301190D01*
X876190Y-42082142D01*
X876190Y-41808333D01*
X821428Y-41589285D01*
X766666Y-41479761D01*
X711904Y-41425000D01*
X602380Y-41370238D01*
X-219047Y-41479761D02*
X-273809Y-41425000D01*
X-383333Y-41370238D01*
X-657142Y-41370238D01*
X-766666Y-41425000D01*
X-821428Y-41479761D01*
X-876190Y-41589285D01*
X-876190Y-41698809D01*
X-821428Y-41863095D01*
X-164285Y-42520238D01*
X-876190Y-42520238D01*
X-1588095Y-41370238D02*
X-1697619Y-41370238D01*
X-1807142Y-41425000D01*
X-1861904Y-41479761D01*
X-1916666Y-41589285D01*
X-1971428Y-41808333D01*
X-1971428Y-42082142D01*
X-1916666Y-42301190D01*
X-1861904Y-42410714D01*
X-1807142Y-42465476D01*
X-1697619Y-42520238D01*
X-1588095Y-42520238D01*
X-1478571Y-42465476D01*
X-1423809Y-42410714D01*
X-1369047Y-42301190D01*
X-1314285Y-42082142D01*
X-1314285Y-41808333D01*
X-1369047Y-41589285D01*
X-1423809Y-41479761D01*
X-1478571Y-41425000D01*
X-1588095Y-41370238D01*
D11*
X3809523Y-39447619D02*
X3809523Y-36247619D01*
X2590476Y-36247619D01*
X2285714Y-36400000D01*
X2133333Y-36552380D01*
X1980952Y-36857142D01*
X1980952Y-37314285D01*
X2133333Y-37619047D01*
X2285714Y-37771428D01*
X2590476Y-37923809D01*
X3809523Y-37923809D01*
X761904Y-38533333D02*
X-761904Y-38533333D01*
X1066666Y-39447619D02*
X0Y-36247619D01*
X-1066666Y-39447619D01*
X-2133333Y-39447619D02*
X-2133333Y-36247619D01*
X-2895238Y-36247619D01*
X-3352380Y-36400000D01*
X-3657142Y-36704761D01*
X-3809523Y-37009523D01*
X-3961904Y-37619047D01*
X-3961904Y-38076190D01*
X-3809523Y-38685714D01*
X-3657142Y-38990476D01*
X-3352380Y-39295238D01*
X-2895238Y-39447619D01*
X-2133333Y-39447619D01*
D12*
X4875773Y-10214285D02*
X3560297Y309523D01*
X2786488Y1547619D01*
X2090059Y2166666D01*
X774583Y2785714D01*
X-1082559Y2785714D01*
X-2243273Y2166666D01*
X-2784940Y1547619D01*
X-3249226Y309523D01*
X-2784940Y-3404761D01*
X-2011130Y-4642857D01*
X-1314702Y-5261904D01*
X773Y-5880952D01*
X1857916Y-5880952D01*
X3018630Y-5261904D01*
X4101964Y-4023809D01*
M02*
